<svg role="img" viewBox="0 0 24 24" xmlns="http://www.w3.org/2000/svg"><title>Android</title><path fill="#3DDC84" d="M17.523 15.3414c-.5511 0-.9993-.4486-.9993-.9997s.4482-.9993.9993-.9993c.5511 0 .9993.4482.9993.9993.0004.5511-.4482.9997-.9993.9997m-11.046 0c-.5511 0-.9993-.4486-.9993-.9997s.4482-.9993.9993-.9993c.5511 0 .9993.4482.9993.9993 0 .5511-.4482.9997-.9993.9997m11.4045-6.02l1.9973-3.4592a.416.416 0 00-.1521-.5676.416.416 0 00-.5676.1521l-2.0223 3.503C15.5902 8.4049 13.8533 7.9197 12 7.9197c-1.8533 0-3.5902.4852-5.1367 1.3288L4.841 5.7455a.4161.4161 0 00-.5677-.1521.4157.4157 0 00-.1521.5676l1.9973 3.4592C2.6889 11.8468 0 15.5946 0 19.9087h24c0-4.3141-2.6889-8.0619-6.1185-10.5873"/></svg>
