<svg role="img" viewBox="0 0 24 24" xmlns="http://www.w3.org/2000/svg"><title>C</title><path fill="#A8B9CC" d="M16.5921 9.1962s-.354-3.298-3.627-3.39c-3.2741-.09-4.9552 2.474-4.9552 6.14 0 3.6651 1.858 6.5972 5.0451 6.5972 3.184 0 3.5381-3.665 3.5381-3.665l6.1041.365s.36 3.31-2.196 5.836c-2.552 2.524-5.69 2.936-7.876 2.936-2.19 0-5.207-.4-8.0271-3.194-2.82-2.795-3.6651-5.97-3.6651-9.147 0-3.1761.6-6.2162 3.4201-9.1472C7.19 0 9.91 0 11.785 0c1.8721 0 5.2151.27 8.0271 3.437 2.8101 3.168 2.687 6.119 2.687 6.119z"/></svg>
